<?xml version="1.0" encoding="utf-8"?>
<!-- Generator: Adobe Illustrator 25.2.3, SVG Export Plug-In . SVG Version: 6.00 Build 0)  -->
<svg version="1.1" id="Layer_1" xmlns="http://www.w3.org/2000/svg" xmlns:xlink="http://www.w3.org/1999/xlink" x="0px" y="0px"
	 viewBox="0 0 100 100" style="enable-background:new 0 0 100 100;" xml:space="preserve">
<style type="text/css">
	.st0{fill:#041958;}
</style>
<path class="st0" d="M80.5,15.5c7.8,0,14.1,6.3,14.1,14v41c0,7.8-6.3,14-14,14h-0.1l-61.1,0c-7.8,0-14-6.3-14-14v-41
	c0-7.8,6.3-14,14-14L80.5,15.5z M59.3,54.1l-0.9,0.9c-4.5,4.5-11.4,4.7-16.2,0.6L41,54.5L16.8,77.4c0.6,0.3,1.3,0.4,2,0.5l0.6,0.1
	h61.1c1,0,1.9-0.2,2.7-0.5L59.3,54.1z M12.8,26.5c-0.4,0.9-0.7,2-0.7,3.1v41c0,0.6,0.1,1.2,0.2,1.8l23.9-22.6L12.8,26.5z M87.2,26.5
	L64,49.4l23.6,22.9c0.1-0.4,0.2-0.8,0.2-1.2l0.1-0.6v-41C87.8,28.4,87.6,27.4,87.2,26.5L87.2,26.5z M80.5,22.2H19.4
	c-0.5,0-0.9,0.1-1.4,0.1l28.2,28c2,2,4.8,2.1,6.9,0.4l0.4-0.4l28.2-28C81.4,22.2,80.9,22.2,80.5,22.2L80.5,22.2z"/>
</svg>
