<?xml version="1.0" encoding="utf-8"?>
<!-- Generator: Adobe Illustrator 25.2.3, SVG Export Plug-In . SVG Version: 6.00 Build 0)  -->
<svg version="1.1" id="Layer_1" xmlns="http://www.w3.org/2000/svg" xmlns:xlink="http://www.w3.org/1999/xlink" x="0px" y="0px"
	 viewBox="0 0 396 576" style="enable-background:new 0 0 396 576;" xml:space="preserve">
<style type="text/css">
	.st0{fill:#1E2255;}
	.st1{fill:#FFFFFF;}
</style>
<g>
	<path class="st0" d="M394,2v572H2V2H394 M396,0H0v576h396V0L396,0z"/>
</g>
<g>
	<rect x="36" y="36" class="st0" width="324" height="502.41"/>
</g>
<g>
	<path class="st1" d="M117.9,263.97h160.2c4.42,0,8.01-3.59,8.01-8.01c0-2.12-0.84-4.16-2.35-5.66l-64.08-64.08
		c-3.13-3.13-8.2-3.13-11.33,0l-34.39,34.39l-10.36-10.36c-3.13-3.13-8.2-3.13-11.33,0l-40.05,40.05c-3.13,3.13-3.13,8.2,0,11.33
		C113.74,263.13,115.78,263.97,117.9,263.97z M214.02,203.21l44.74,44.74h-57.45l-16.02-16.02L214.02,203.21z M157.95,227.24
		l20.71,20.71h-41.43L157.95,227.24z"/>
	<path class="st1" d="M157.95,199.89c13.27,0,24.03-10.76,24.03-24.03s-10.76-24.03-24.03-24.03s-24.03,10.76-24.03,24.03
		S144.68,199.89,157.95,199.89z M157.95,167.85c4.42,0,8.01,3.59,8.01,8.01s-3.59,8.01-8.01,8.01s-8.01-3.59-8.01-8.01
		S153.53,167.85,157.95,167.85z"/>
	<path class="st1" d="M69.84,103.77c-4.42,0-8.01,3.59-8.01,8.01v192.24c0,4.42,3.59,8.01,8.01,8.01h256.32
		c4.42,0,8.01-3.59,8.01-8.01V111.78c0-4.42-3.59-8.01-8.01-8.01H69.84z M318.15,296.01H77.85V119.79h240.3V296.01z"/>
	<rect x="61.83" y="328.05" class="st1" width="272.34" height="16.02"/>
	<rect x="61.83" y="360.09" class="st1" width="272.34" height="16.02"/>
	<rect x="61.83" y="392.13" class="st1" width="272.34" height="16.02"/>
	<rect x="61.83" y="424.17" class="st1" width="272.34" height="16.02"/>
	<rect x="61.83" y="456.21" class="st1" width="272.34" height="16.02"/>
</g>
</svg>