<?xml version="1.0" encoding="utf-8"?>
<!-- Generator: Adobe Illustrator 25.2.3, SVG Export Plug-In . SVG Version: 6.00 Build 0)  -->
<svg version="1.1" id="Layer_1" xmlns="http://www.w3.org/2000/svg" xmlns:xlink="http://www.w3.org/1999/xlink" x="0px" y="0px"
	 viewBox="0 0 396 576" style="enable-background:new 0 0 396 576;" xml:space="preserve">
<style type="text/css">
	.st0{fill:#1E2255;}
	.st1{fill:#FFFFFF;}
	.st2{fill:#9994AD;}
</style>
<g>
	<path class="st0" d="M394,2v572H2V2H394 M396,0H0v576h396V0L396,0z"/>
</g>
<g>
	<g>
		<rect x="36" y="36" class="st0" width="324" height="234"/>
	</g>
	<g>
		<g>
			<path class="st1" d="M79.98,182.68h84.11c2.32,0,4.21-1.9,4.2-4.24c0-1.12-0.44-2.2-1.23-3l-33.64-33.92
				c-1.64-1.66-4.3-1.66-5.95,0l-18.05,18.2l-5.44-5.48c-1.64-1.66-4.3-1.66-5.95,0l-21.03,21.2c-1.64,1.66-1.64,4.34,0,6
				C77.8,182.23,78.87,182.68,79.98,182.68z M130.45,150.52l23.49,23.69h-30.16l-8.41-8.48L130.45,150.52z M101.01,163.24
				l10.88,10.97H90.14L101.01,163.24z"/>
			<path class="st1" d="M101.01,148.76c6.97,0,12.62-5.7,12.62-12.72s-5.65-12.72-12.62-12.72c-6.97,0-12.62,5.7-12.62,12.72
				S94.04,148.76,101.01,148.76z M101.01,131.8c2.32,0,4.21,1.9,4.21,4.24c0,2.34-1.88,4.24-4.21,4.24s-4.21-1.9-4.21-4.24
				C96.81,133.7,98.69,131.8,101.01,131.8z"/>
			<path class="st1" d="M54.75,97.88c-2.32,0-4.21,1.9-4.21,4.24v101.77c0,2.34,1.88,4.24,4.21,4.24h134.57
				c2.32,0,4.21-1.9,4.21-4.24V102.12c0-2.34-1.88-4.24-4.21-4.24H54.75z M185.12,199.64H58.96v-93.28h126.16V199.64z"/>
		</g>
		<g>
			<rect x="210.84" y="103.74" class="st1" width="134.61" height="10.95"/>
			<rect x="210.84" y="125.63" class="st1" width="134.61" height="10.95"/>
			<rect x="210.84" y="147.53" class="st1" width="134.61" height="10.95"/>
			<rect x="210.84" y="169.42" class="st1" width="134.61" height="10.95"/>
			<rect x="210.84" y="191.31" class="st1" width="134.61" height="10.95"/>
		</g>
	</g>
</g>
<g>
	<g>
		<polyline class="st2" points="360,288.76 36,288.76 36,522.76 360,522.76 360,288.76 		"/>
	</g>
	<g>
		<g>
			<path class="st1" d="M79.98,435.44h84.11c2.32,0,4.21-1.9,4.2-4.24c0-1.12-0.44-2.2-1.23-3l-33.64-33.92
				c-1.64-1.66-4.3-1.66-5.95,0l-18.05,18.2l-5.44-5.48c-1.64-1.66-4.3-1.66-5.95,0l-21.03,21.2c-1.64,1.66-1.64,4.34,0,6
				C77.8,434.99,78.87,435.44,79.98,435.44z M130.45,403.27l23.49,23.69h-30.16l-8.41-8.48L130.45,403.27z M101.01,416l10.88,10.97
				H90.14L101.01,416z"/>
			<path class="st1" d="M101.01,401.52c6.97,0,12.62-5.7,12.62-12.72s-5.65-12.72-12.62-12.72c-6.97,0-12.62,5.7-12.62,12.72
				S94.04,401.52,101.01,401.52z M101.01,384.56c2.32,0,4.21,1.9,4.21,4.24s-1.88,4.24-4.21,4.24s-4.21-1.9-4.21-4.24
				S98.69,384.56,101.01,384.56z"/>
			<path class="st1" d="M54.75,350.64c-2.32,0-4.21,1.9-4.21,4.24v101.77c0,2.34,1.88,4.24,4.21,4.24h134.57
				c2.32,0,4.21-1.9,4.21-4.24V354.88c0-2.34-1.88-4.24-4.21-4.24H54.75z M185.12,452.4H58.96v-93.28h126.16V452.4z"/>
		</g>
		<g>
			<rect x="210.84" y="356.5" class="st1" width="134.61" height="10.95"/>
			<rect x="210.84" y="378.39" class="st1" width="134.61" height="10.95"/>
			<rect x="210.84" y="400.29" class="st1" width="134.61" height="10.95"/>
			<rect x="210.84" y="422.18" class="st1" width="134.61" height="10.95"/>
			<rect x="210.84" y="444.07" class="st1" width="134.61" height="10.95"/>
		</g>
	</g>
</g>
</svg>
