<svg height='100px' width='100px'  fill="#051958" xmlns="http://www.w3.org/2000/svg" xmlns:xlink="http://www.w3.org/1999/xlink" version="1.1" x="0px" y="0px" viewBox="0 0 100 100" enable-background="new 0 0 100 100" xml:space="preserve"><g><path d="M50,10c-22.092,0-40,17.908-40,40s17.908,40,40,40s40-17.908,40-40S72.092,10,50,10z M70.9,70.9H29.1V29.1h41.8V70.9z"></path><path d="M49.4,65.5h1.2v3.201h18.1V31.299H50.6V34.5h-1.2v-3.201H31.3v37.402h18.1V65.5z M49.4,37.5h1.2v4h-1.2V37.5z M49.4,44.5   h1.2v4h-1.2V44.5z M49.4,51.5h1.2v4h-1.2V51.5z M49.4,58.5h1.2v4h-1.2V58.5z"></path></g></svg>