<svg height='100px' width='100px'  fill="#051958" xmlns="http://www.w3.org/2000/svg" data-name="Layer 1" viewBox="0 0 80 80" x="0px" y="0px"><title>22_BO_open_book</title><path d="M58.88,22a17.4,17.4,0,0,1-5.25-.93A21,21,0,0,0,47.47,20c-1.62,0-4.29,1.53-6,2.75V59a11.56,11.56,0,0,1,6-2,37.36,37.36,0,0,1,6.8.86,28,28,0,0,0,4.64.64h3.58L63,22Z"></path><path d="M31.75,53.8A30.41,30.41,0,0,0,23.25,51,1.5,1.5,0,0,1,22,49.5V22.25H17.83V58.59c2.89,0,7.8-.25,10.15-1.19a16.27,16.27,0,0,1,7.54-.32A14.23,14.23,0,0,0,31.75,53.8Z"></path><path d="M32.67,14.75C30.52,13.32,27,12.56,25,12.23v36a30.71,30.71,0,0,1,8.25,2.93A17.88,17.88,0,0,1,38.5,56V22.38C37.42,20.45,34.74,16.13,32.67,14.75Z"></path></svg>