<svg height='100px' width='100px'  fill="#051958" xmlns="http://www.w3.org/2000/svg" data-name="Layer 3" viewBox="0 0 64 64" x="0px" y="0px"><title>POSTER-wall-art and design-announcement-advertising-signs</title><path d="M52,7H51V4a1,1,0,0,0-1-1H47V2a1,1,0,0,0-1-1H42a1,1,0,0,0-1,1V7H23V2a1,1,0,0,0-1-1H18a1,1,0,0,0-1,1V3H14a1,1,0,0,0-1,1V7H12a1,1,0,0,0-1,1V62a1,1,0,0,0,1,1H52a1,1,0,0,0,1-1V8A1,1,0,0,0,52,7ZM49,5V7H47V5ZM43,3h2V9H43ZM19,3h2V9H19ZM15,5h2V7H15ZM51,61H13V9h4v1a1,1,0,0,0,1,1h4a1,1,0,0,0,1-1V9H41v1a1,1,0,0,0,1,1h4a1,1,0,0,0,1-1V9h4Z"></path><path d="M22,33H42a1,1,0,0,0,.707-1.707l-8-8a1,1,0,0,0-1.414,0L29,27.586l-1.293-1.293a1,1,0,0,0-1.414,0l-5,5A1,1,0,0,0,22,33Zm12-7.586L39.586,31H32.414l-2-2Zm-7,3L29.586,31H24.414Z"></path><path d="M27,25a3,3,0,1,0-3-3A3,3,0,0,0,27,25Zm0-4a1,1,0,1,1-1,1A1,1,0,0,1,27,21Z"></path><path d="M16,13a1,1,0,0,0-1,1V38a1,1,0,0,0,1,1H48a1,1,0,0,0,1-1V14a1,1,0,0,0-1-1ZM47,37H17V15H47Z"></path><rect x="15" y="41" width="34" height="2"></rect><rect x="15" y="45" width="34" height="2"></rect><rect x="15" y="49" width="34" height="2"></rect><rect x="15" y="53" width="34" height="2"></rect><rect x="15" y="57" width="34" height="2"></rect></svg>