<svg height='100px' width='100px'  fill="#051958" xmlns="http://www.w3.org/2000/svg" xmlns:xlink="http://www.w3.org/1999/xlink" version="1.1" x="0px" y="0px" viewBox="0 0 100 100" enable-background="new 0 0 100 100" xml:space="preserve"><g><path d="M50,10c-22.092,0-40,17.908-40,40s17.908,40,40,40s40-17.908,40-40S72.092,10,50,10z M70.9,70.9H29.1V29.1h41.8V70.9z"></path><path d="M68.7,31.299H31.3v37.402h37.4V31.299z M49.392,34h1.199v4h-1.199V34z M49.392,41h1.199v4h-1.199V41z M37.991,50.6h-4   v-1.199h4V50.6z M44.991,50.6h-4v-1.199h4V50.6z M50.591,66h-1.199v-4h1.199V66z M50.591,59h-1.199v-4h1.199V59z M51.991,50.6h-1.4   V52h-1.199v-1.4h-1.401v-1.199h1.401V48h1.199v1.401h1.4V50.6z M58.991,50.6h-4v-1.199h4V50.6z M65.991,50.6h-4v-1.199h4V50.6z"></path></g></svg>