<?xml version="1.0" encoding="utf-8"?>
<!-- Generator: Adobe Illustrator 25.2.3, SVG Export Plug-In . SVG Version: 6.00 Build 0)  -->
<svg version="1.1" id="Layer_1" xmlns="http://www.w3.org/2000/svg" xmlns:xlink="http://www.w3.org/1999/xlink" x="0px" y="0px"
	 viewBox="0 0 396 576" style="enable-background:new 0 0 396 576;" xml:space="preserve">
<style type="text/css">
	.st0{fill:#1E2255;}
	.st1{fill:#FFFFFF;}
</style>
<g>
	<path class="st0" d="M394,2v572H2V2H394 M396,0H0v576h396V0L396,0z"/>
</g>
<g>
	<g>
		<rect x="26.77" y="36" class="st0" width="163.7" height="234"/>
		<g>
			<path class="st1" d="M72.66,141.07h71.93c1.99,0,3.6-1.78,3.6-3.98c0-1.05-0.38-2.07-1.05-2.81l-28.77-31.82
				c-1.4-1.55-3.68-1.55-5.09,0l-15.44,17.08l-4.65-5.14c-1.4-1.55-3.68-1.55-5.09,0l-17.98,19.89c-1.4,1.55-1.4,4.07,0,5.63
				C70.79,140.65,71.71,141.07,72.66,141.07z M115.82,110.89l20.09,22.22h-25.79l-7.19-7.95L115.82,110.89z M90.64,122.83l9.3,10.29
				h-18.6L90.64,122.83z"/>
			<path class="st1" d="M90.64,109.25c5.96,0,10.79-5.34,10.79-11.93c0-6.59-4.83-11.93-10.79-11.93s-10.79,5.34-10.79,11.93
				C79.85,103.91,84.68,109.25,90.64,109.25z M90.64,93.34c1.99,0,3.6,1.78,3.6,3.98s-1.61,3.98-3.6,3.98s-3.6-1.78-3.6-3.98
				S88.66,93.34,90.64,93.34z"/>
			<path class="st1" d="M51.08,61.52c-1.99,0-3.6,1.78-3.6,3.98v95.46c0,2.2,1.61,3.98,3.6,3.98h115.09c1.99,0,3.6-1.78,3.6-3.98
				V65.5c0-2.2-1.61-3.98-3.6-3.98H51.08z M162.57,156.98H54.68v-87.5h107.89V156.98z"/>
			<rect x="47.48" y="172.89" class="st1" width="122.28" height="7.95"/>
			<rect x="47.48" y="188.8" class="st1" width="122.28" height="7.95"/>
			<rect x="47.48" y="204.71" class="st1" width="122.28" height="7.95"/>
			<rect x="47.48" y="220.62" class="st1" width="122.28" height="7.95"/>
			<rect x="47.48" y="236.53" class="st1" width="122.28" height="7.95"/>
		</g>
	</g>
	<g>
		<rect x="205.53" y="36" class="st0" width="163.7" height="234"/>
		<g>
			<path class="st1" d="M251.41,141.07h71.93c1.99,0,3.6-1.78,3.6-3.98c0-1.05-0.38-2.07-1.05-2.81l-28.77-31.82
				c-1.4-1.55-3.68-1.55-5.09,0l-15.44,17.08l-4.65-5.14c-1.4-1.55-3.68-1.55-5.09,0l-17.98,19.89c-1.4,1.55-1.4,4.07,0,5.63
				C249.54,140.65,250.46,141.07,251.41,141.07z M294.57,110.89l20.09,22.22h-25.79l-7.19-7.95L294.57,110.89z M269.39,122.83
				l9.3,10.29h-18.6L269.39,122.83z"/>
			<path class="st1" d="M269.39,109.25c5.96,0,10.79-5.34,10.79-11.93c0-6.59-4.83-11.93-10.79-11.93
				c-5.96,0-10.79,5.34-10.79,11.93C258.6,103.91,263.44,109.25,269.39,109.25z M269.39,93.34c1.99,0,3.6,1.78,3.6,3.98
				s-1.61,3.98-3.6,3.98c-1.99,0-3.6-1.78-3.6-3.98S267.41,93.34,269.39,93.34z"/>
			<path class="st1" d="M229.83,61.52c-1.99,0-3.6,1.78-3.6,3.98v95.46c0,2.2,1.61,3.98,3.6,3.98h115.09c1.99,0,3.6-1.78,3.6-3.98
				V65.5c0-2.2-1.61-3.98-3.6-3.98H229.83z M341.32,156.98H233.43v-87.5h107.89V156.98z"/>
			<rect x="226.24" y="172.89" class="st1" width="122.28" height="7.95"/>
			<rect x="226.24" y="188.8" class="st1" width="122.28" height="7.95"/>
			<rect x="226.24" y="204.71" class="st1" width="122.28" height="7.95"/>
			<rect x="226.24" y="220.62" class="st1" width="122.28" height="7.95"/>
			<rect x="226.24" y="236.53" class="st1" width="122.28" height="7.95"/>
		</g>
	</g>
	<g>
		<rect x="26.77" y="284.61" class="st0" width="163.7" height="234"/>
		<g>
			<path class="st1" d="M72.66,389.68h71.93c1.99,0,3.6-1.78,3.6-3.98c0-1.05-0.38-2.07-1.05-2.81l-28.77-31.82
				c-1.4-1.55-3.68-1.55-5.09,0l-15.44,17.08L93.18,363c-1.4-1.55-3.68-1.55-5.09,0l-17.98,19.89c-1.4,1.55-1.4,4.07,0,5.63
				C70.79,389.26,71.71,389.68,72.66,389.68z M115.82,359.51l20.09,22.22h-25.79l-7.19-7.95L115.82,359.51z M90.64,371.44l9.3,10.29
				h-18.6L90.64,371.44z"/>
			<path class="st1" d="M90.64,357.86c5.96,0,10.79-5.34,10.79-11.93s-4.83-11.93-10.79-11.93s-10.79,5.34-10.79,11.93
				S84.68,357.86,90.64,357.86z M90.64,341.95c1.99,0,3.6,1.78,3.6,3.98c0,2.2-1.61,3.98-3.6,3.98s-3.6-1.78-3.6-3.98
				C87.04,343.73,88.66,341.95,90.64,341.95z"/>
			<path class="st1" d="M51.08,310.13c-1.99,0-3.6,1.78-3.6,3.98v95.46c0,2.2,1.61,3.98,3.6,3.98h115.09c1.99,0,3.6-1.78,3.6-3.98
				v-95.46c0-2.2-1.61-3.98-3.6-3.98H51.08z M162.57,405.59H54.68v-87.5h107.89V405.59z"/>
			<rect x="47.48" y="421.5" class="st1" width="122.28" height="7.95"/>
			<rect x="47.48" y="437.41" class="st1" width="122.28" height="7.95"/>
			<rect x="47.48" y="453.32" class="st1" width="122.28" height="7.95"/>
			<rect x="47.48" y="469.23" class="st1" width="122.28" height="7.95"/>
			<rect x="47.48" y="485.14" class="st1" width="122.28" height="7.95"/>
		</g>
	</g>
	<rect x="205.53" y="284.61" class="st0" width="163.7" height="234"/>
	<g>
		<path class="st1" d="M254.35,389.68h71.93c1.99,0,3.6-1.78,3.6-3.98c0-1.05-0.38-2.07-1.05-2.81l-28.77-31.82
			c-1.4-1.55-3.68-1.55-5.09,0l-15.44,17.08l-4.65-5.14c-1.4-1.55-3.68-1.55-5.09,0l-17.98,19.89c-1.4,1.55-1.4,4.07,0,5.63
			C252.48,389.26,253.4,389.68,254.35,389.68z M297.51,359.51l20.09,22.22H291.8l-7.19-7.95L297.51,359.51z M272.33,371.44
			l9.3,10.29h-18.6L272.33,371.44z"/>
		<path class="st1" d="M272.33,357.86c5.96,0,10.79-5.34,10.79-11.93s-4.83-11.93-10.79-11.93c-5.96,0-10.79,5.34-10.79,11.93
			S266.37,357.86,272.33,357.86z M272.33,341.95c1.99,0,3.6,1.78,3.6,3.98c0,2.2-1.61,3.98-3.6,3.98c-1.99,0-3.6-1.78-3.6-3.98
			C268.74,343.73,270.35,341.95,272.33,341.95z"/>
		<path class="st1" d="M232.77,310.13c-1.99,0-3.6,1.78-3.6,3.98v95.46c0,2.2,1.61,3.98,3.6,3.98h115.09c1.99,0,3.6-1.78,3.6-3.98
			v-95.46c0-2.2-1.61-3.98-3.6-3.98H232.77z M344.26,405.59H236.37v-87.5h107.89V405.59z"/>
		<rect x="229.17" y="421.5" class="st1" width="122.28" height="7.95"/>
		<rect x="229.17" y="437.41" class="st1" width="122.28" height="7.95"/>
		<rect x="229.17" y="453.32" class="st1" width="122.28" height="7.95"/>
		<rect x="229.17" y="469.23" class="st1" width="122.28" height="7.95"/>
		<rect x="229.17" y="485.14" class="st1" width="122.28" height="7.95"/>
	</g>
</g>
</svg>