<?xml version="1.0" encoding="utf-8"?>
<!-- Generator: Adobe Illustrator 25.2.3, SVG Export Plug-In . SVG Version: 6.00 Build 0)  -->
<svg version="1.1" id="Layer_1" xmlns="http://www.w3.org/2000/svg" xmlns:xlink="http://www.w3.org/1999/xlink" x="0px" y="0px"
	 viewBox="0 0 396 576" style="enable-background:new 0 0 396 576;" xml:space="preserve">
<style type="text/css">
	.st0{fill:#1E2255;}
	.st1{fill:#FFFFFF;}
	.st2{fill:#9994AD;}
</style>
<path class="st0" d="M394,2v572H2V2H394 M396,0H0v576h396V0L396,0z"/>
<rect x="26.8" y="36" class="st0" width="163.7" height="234"/>
<g>
	<path class="st1" d="M72.7,141.1h71.9c2,0,3.6-1.8,3.6-4c0-1.1-0.4-2.1-1.1-2.8l-28.8-31.8c-1.4-1.6-3.7-1.6-5.1,0l-15.4,17.1
		l-4.7-5.1c-1.4-1.6-3.7-1.6-5.1,0l-18,19.9c-1.4,1.6-1.4,4.1,0,5.6C70.8,140.6,71.7,141.1,72.7,141.1z M115.8,110.9l20.1,22.2
		h-25.8l-7.2-7.9L115.8,110.9z M90.6,122.8l9.3,10.3H81.3L90.6,122.8z"/>
	<path class="st1" d="M90.6,109.2c6,0,10.8-5.3,10.8-11.9s-4.8-11.9-10.8-11.9s-10.8,5.3-10.8,11.9S84.7,109.2,90.6,109.2z
		 M90.6,93.3c2,0,3.6,1.8,3.6,4s-1.6,4-3.6,4s-3.6-1.8-3.6-4S88.7,93.3,90.6,93.3z"/>
	<path class="st1" d="M51.1,61.5c-2,0-3.6,1.8-3.6,4V161c0,2.2,1.6,4,3.6,4h115.1c2,0,3.6-1.8,3.6-4V65.5c0-2.2-1.6-4-3.6-4H51.1z
		 M162.6,157H54.7V69.5h107.9V157z"/>
	<rect x="47.5" y="172.9" class="st1" width="122.3" height="7.9"/>
	<rect x="47.5" y="188.8" class="st1" width="122.3" height="7.9"/>
	<rect x="47.5" y="204.7" class="st1" width="122.3" height="7.9"/>
	<rect x="47.5" y="220.6" class="st1" width="122.3" height="7.9"/>
	<rect x="47.5" y="236.5" class="st1" width="122.3" height="7.9"/>
</g>
<rect x="205.5" y="36" class="st2" width="163.7" height="234"/>
<path class="st1" d="M251.4,141.1h71.9c2,0,3.6-1.8,3.6-4c0-1.1-0.4-2.1-1-2.8l-28.8-31.8c-1.4-1.6-3.7-1.6-5.1,0l-15.4,17.1
	l-4.6-5.1c-1.4-1.6-3.7-1.6-5.1,0l-18,19.9c-1.4,1.6-1.4,4.1,0,5.6C249.5,140.6,250.5,141.1,251.4,141.1z M294.6,110.9l20.1,22.2
	h-25.8l-7.2-7.9L294.6,110.9z M269.4,122.8l9.3,10.3h-18.6L269.4,122.8z"/>
<path class="st1" d="M269.4,109.2c6,0,10.8-5.3,10.8-11.9s-4.8-11.9-10.8-11.9c-6,0-10.8,5.3-10.8,11.9S263.4,109.2,269.4,109.2z
	 M269.4,93.3c2,0,3.6,1.8,3.6,4s-1.6,4-3.6,4c-2,0-3.6-1.8-3.6-4S267.4,93.3,269.4,93.3z"/>
<path class="st1" d="M229.8,61.5c-2,0-3.6,1.8-3.6,4V161c0,2.2,1.6,4,3.6,4h115.1c2,0,3.6-1.8,3.6-4V65.5c0-2.2-1.6-4-3.6-4H229.8z
	 M341.3,157H233.4V69.5h107.9V157z"/>
<rect x="226.2" y="172.9" class="st1" width="122.3" height="7.9"/>
<rect x="226.2" y="188.8" class="st1" width="122.3" height="7.9"/>
<rect x="226.2" y="204.7" class="st1" width="122.3" height="7.9"/>
<rect x="226.2" y="220.6" class="st1" width="122.3" height="7.9"/>
<rect x="226.2" y="236.5" class="st1" width="122.3" height="7.9"/>
<rect x="26.8" y="284.6" class="st2" width="163.7" height="234"/>
<path class="st1" d="M72.7,389.7h71.9c2,0,3.6-1.8,3.6-4c0-1-0.4-2.1-1.1-2.8l-28.8-31.8c-1.4-1.5-3.7-1.5-5.1,0l-15.4,17.1
	l-4.7-5.1c-1.4-1.5-3.7-1.5-5.1,0l-18,19.9c-1.4,1.5-1.4,4.1,0,5.6C70.8,389.3,71.7,389.7,72.7,389.7z M115.8,359.5l20.1,22.2h-25.8
	l-7.2-8L115.8,359.5z M90.6,371.4l9.3,10.3H81.3L90.6,371.4z"/>
<path class="st1" d="M90.6,357.9c6,0,10.8-5.3,10.8-11.9S96.6,334,90.6,334s-10.8,5.3-10.8,11.9S84.7,357.9,90.6,357.9z M90.6,342
	c2,0,3.6,1.8,3.6,4s-1.6,4-3.6,4s-3.6-1.8-3.6-4S88.7,342,90.6,342z"/>
<path class="st1" d="M51.1,310.1c-2,0-3.6,1.8-3.6,4v95.5c0,2.2,1.6,4,3.6,4h115.1c2,0,3.6-1.8,3.6-4v-95.5c0-2.2-1.6-4-3.6-4H51.1z
	 M162.6,405.6H54.7v-87.5h107.9V405.6z"/>
<rect x="47.5" y="421.5" class="st1" width="122.3" height="8"/>
<rect x="47.5" y="437.4" class="st1" width="122.3" height="8"/>
<rect x="47.5" y="453.3" class="st1" width="122.3" height="8"/>
<rect x="47.5" y="469.2" class="st1" width="122.3" height="8"/>
<rect x="47.5" y="485.1" class="st1" width="122.3" height="8"/>
<rect x="205.5" y="284.6" class="st2" width="163.7" height="234"/>
<path class="st1" d="M254.4,389.7h71.9c2,0,3.6-1.8,3.6-4c0-1-0.4-2.1-1-2.8l-28.8-31.8c-1.4-1.5-3.7-1.5-5.1,0l-15.4,17.1l-4.6-5.1
	c-1.4-1.5-3.7-1.5-5.1,0l-18,19.9c-1.4,1.5-1.4,4.1,0,5.6C252.5,389.3,253.4,389.7,254.4,389.7z M297.5,359.5l20.1,22.2h-25.8
	l-7.2-8L297.5,359.5z M272.3,371.4l9.3,10.3H263L272.3,371.4z"/>
<path class="st1" d="M272.3,357.9c6,0,10.8-5.3,10.8-11.9s-4.8-11.9-10.8-11.9c-6,0-10.8,5.3-10.8,11.9S266.4,357.9,272.3,357.9z
	 M272.3,342c2,0,3.6,1.8,3.6,4s-1.6,4-3.6,4c-2,0-3.6-1.8-3.6-4C268.7,343.7,270.4,342,272.3,342z"/>
<path class="st1" d="M232.8,310.1c-2,0-3.6,1.8-3.6,4v95.5c0,2.2,1.6,4,3.6,4h115.1c2,0,3.6-1.8,3.6-4v-95.5c0-2.2-1.6-4-3.6-4
	H232.8z M344.3,405.6H236.4v-87.5h107.9V405.6z"/>
<rect x="229.2" y="421.5" class="st1" width="122.3" height="8"/>
<rect x="229.2" y="437.4" class="st1" width="122.3" height="8"/>
<rect x="229.2" y="453.3" class="st1" width="122.3" height="8"/>
<rect x="229.2" y="469.2" class="st1" width="122.3" height="8"/>
<rect x="229.2" y="485.1" class="st1" width="122.3" height="8"/>
</svg>
