<?xml version="1.0" encoding="utf-8"?>
<!-- Generator: Adobe Illustrator 25.2.3, SVG Export Plug-In . SVG Version: 6.00 Build 0)  -->
<svg version="1.1" id="Layer_1" xmlns="http://www.w3.org/2000/svg" xmlns:xlink="http://www.w3.org/1999/xlink" x="0px" y="0px"
	 viewBox="0 0 100 100" style="enable-background:new 0 0 100 100;" xml:space="preserve">
<style type="text/css">
	.st0{fill:#041958;}
</style>
<path class="st0" d="M77.7,13.1H22.3c-6.1,0-11,4.9-11,11v40.6c0,6.1,4.9,11,11,11h17L50,86.9l10.7-11.3h17c6.1,0,11-4.9,11-11
	l0-40.6C88.7,18,83.8,13.1,77.7,13.1L77.7,13.1z M67,45.5l-17,17l-17-17c-4.4-4.4-4.4-11.6,0-16c4.4-4.4,11.6-4.4,16,0l1,1l1-1
	c4.4-4.4,11.6-4.4,16,0C71.4,34,71.4,41.1,67,45.5L67,45.5z"/>
</svg>
