<svg height='100px' width='100px'  fill="#051958" xmlns:x="http://ns.adobe.com/Extensibility/1.0/" xmlns:i="http://ns.adobe.com/AdobeIllustrator/10.0/" xmlns:graph="http://ns.adobe.com/Graphs/1.0/" xmlns="http://www.w3.org/2000/svg" xmlns:xlink="http://www.w3.org/1999/xlink" version="1.1" x="0px" y="0px" viewBox="0 0 100 100" enable-background="new 0 0 100 100" xml:space="preserve"><g><g i:extraneous="self"><rect x="32.536" y="28.698" transform="matrix(0.7071 0.7071 -0.7071 0.7071 50.1379 -20.4889)" width="34.531" height="43.16"></rect><path d="M95.095,37.727l0.064-8.142c0.002-0.302-0.123-0.6-0.344-0.822c-0.222-0.222-0.52-0.347-0.822-0.344l-6.967,0.056    l0.055-6.967c0.002-0.302-0.123-0.6-0.344-0.822c-0.222-0.222-0.52-0.347-0.822-0.344l-6.967,0.055l0.056-6.967    c0.002-0.302-0.123-0.6-0.344-0.822c-0.222-0.222-0.52-0.347-0.822-0.344l-6.967,0.055l0.055-6.967    c0.002-0.302-0.123-0.6-0.344-0.822c-0.222-0.222-0.52-0.347-0.822-0.344L61.618,4.25c-0.27,0.003-0.521,0.106-0.706,0.29    L3.123,62.328c-0.184,0.184-0.288,0.436-0.29,0.706l-0.065,8.142c-0.003,0.302,0.122,0.6,0.344,0.822    c0.222,0.222,0.52,0.347,0.822,0.344l6.967-0.055l-0.055,6.967c-0.002,0.302,0.123,0.6,0.344,0.822    c0.222,0.222,0.52,0.347,0.822,0.344l6.966-0.055l-0.055,6.967c-0.003,0.302,0.123,0.6,0.344,0.822    c0.222,0.222,0.52,0.347,0.822,0.344l6.967-0.055l-0.055,6.966c-0.003,0.302,0.123,0.6,0.344,0.822    c0.222,0.222,0.52,0.347,0.822,0.344l8.142-0.064c0.269-0.002,0.521-0.105,0.706-0.29l57.789-57.789    C94.989,38.248,95.093,37.996,95.095,37.727z M79.396,47.302l-32.57,32.57l-5.215,5.215c-1.414,1.414-3.692,1.437-5.078,0.051    L14.941,63.545c-1.386-1.386-1.363-3.664,0.051-5.078l5.215-5.215l32.57-32.57l5.3-5.3c1.414-1.414,3.692-1.437,5.078-0.051    l21.593,21.593c1.386,1.386,1.363,3.664-0.051,5.078L79.396,47.302z"></path><path d="M21.308,54.354l-5.215,5.215c-0.849,0.849-0.905,2.172-0.126,2.951l21.593,21.593c0.779,0.779,2.102,0.722,2.951-0.127    l5.215-5.215L21.308,54.354z M21.419,63.698c-0.836-0.836-0.883-2.146-0.104-2.925c0.779-0.779,2.089-0.732,2.925,0.104    c0.836,0.836,0.883,2.146,0.104,2.925C23.565,64.581,22.255,64.534,21.419,63.698z M28.716,70.995    c-0.836-0.836-0.883-2.146-0.104-2.925c0.779-0.779,2.089-0.732,2.925,0.104c0.836,0.836,0.883,2.146,0.104,2.925    C30.863,71.878,29.553,71.832,28.716,70.995z M36.496,78.775c-0.836-0.836-0.883-2.146-0.104-2.925    c0.779-0.779,2.089-0.732,2.925,0.104c0.836,0.836,0.883,2.146,0.104,2.925C38.642,79.658,37.332,79.611,36.496,78.775z"></path><path d="M83.721,37.95L62.129,16.357c-0.779-0.779-2.103-0.722-2.951,0.126l-5.3,5.3l24.417,24.417l5.3-5.3    C84.443,40.052,84.5,38.728,83.721,37.95z M60.279,24.723c-0.836-0.836-0.883-2.146-0.104-2.925    c0.779-0.779,2.089-0.732,2.925,0.104c0.836,0.836,0.883,2.146,0.104,2.925C62.425,25.606,61.115,25.559,60.279,24.723z     M67.576,32.02c-0.836-0.836-0.883-2.146-0.104-2.925c0.779-0.779,2.089-0.732,2.925,0.104c0.836,0.836,0.883,2.146,0.104,2.925    C69.723,32.903,68.413,32.857,67.576,32.02z M75.356,39.8c-0.836-0.836-0.883-2.146-0.104-2.925    c0.779-0.779,2.089-0.732,2.925,0.104c0.836,0.836,0.883,2.146,0.104,2.925C77.502,40.683,76.192,40.636,75.356,39.8z"></path></g></g></svg>