<svg height='100px' width='100px'  fill="#051958" xmlns:x="http://ns.adobe.com/Extensibility/1.0/" xmlns:i="http://ns.adobe.com/AdobeIllustrator/10.0/" xmlns:graph="http://ns.adobe.com/Graphs/1.0/" xmlns="http://www.w3.org/2000/svg" xmlns:xlink="http://www.w3.org/1999/xlink" version="1.1" x="0px" y="0px" viewBox="0 0 100 100" style="enable-background:new 0 0 100 100;" xml:space="preserve"><g><g i:extraneous="self"><g><path d="M90.7,10H9.3c-3.7,0-6.8,3-6.8,6.8v66.5c0,3.7,3,6.8,6.8,6.8h81.5c3.7,0,6.8-3,6.8-6.8V16.8C97.5,13,94.5,10,90.7,10z      M31.7,15.7c1.7,0,3.1,1.4,3.1,3.1c0,1.7-1.4,3.1-3.1,3.1s-3.1-1.4-3.1-3.1C28.6,17.1,30,15.7,31.7,15.7z M22.2,15.7     c1.7,0,3.1,1.4,3.1,3.1c0,1.7-1.4,3.1-3.1,3.1c-1.7,0-3.1-1.4-3.1-3.1C19.1,17.1,20.4,15.7,22.2,15.7z M12.6,15.7     c1.7,0,3.1,1.4,3.1,3.1c0,1.7-1.4,3.1-3.1,3.1c-1.7,0-3.1-1.4-3.1-3.1C9.5,17.1,10.9,15.7,12.6,15.7z M91.7,83.2c0,0.5-0.4,1-1,1     H9.3c-0.5,0-1-0.4-1-1V28.5h83.5V83.2z"></path><path d="M52.7,65h25.9c2,0,3.7-1.7,3.7-3.7V40.2c0-2-1.7-3.7-3.7-3.7H52.7c-2,0-3.7,1.7-3.7,3.7v21.1C49,63.3,50.7,65,52.7,65z      M72.9,42.5c1.3,0,2.3,1,2.3,2.3c0,1.3-1,2.3-2.3,2.3c-1.3,0-2.3-1-2.3-2.3C70.5,43.5,71.6,42.5,72.9,42.5z M55.5,57.6l6.8-10.8     c0.2-0.3,0.7-0.4,0.9,0l4.2,5.6c0.2,0.3,0.6,0.3,0.9,0.1l1.8-1.7c0.3-0.2,0.7-0.2,0.9,0.1l4.8,6.7c0.3,0.4,0,0.9-0.5,0.9H56     C55.6,58.5,55.3,58,55.5,57.6z"></path><path d="M20.3,42.3h20.5c1.6,0,2.9-1.3,2.9-2.9c0-1.6-1.3-2.9-2.9-2.9H20.3c-1.6,0-2.9,1.3-2.9,2.9C17.4,41,18.7,42.3,20.3,42.3z     "></path><path d="M20.3,53.6h20.5c1.6,0,2.9-1.3,2.9-2.9s-1.3-2.9-2.9-2.9H20.3c-1.6,0-2.9,1.3-2.9,2.9S18.7,53.6,20.3,53.6z"></path><path d="M20.3,65h20.5c1.6,0,2.9-1.3,2.9-2.9s-1.3-2.9-2.9-2.9H20.3c-1.6,0-2.9,1.3-2.9,2.9S18.7,65,20.3,65z"></path><path d="M20.3,76.3h59.4c1.6,0,2.9-1.3,2.9-2.9s-1.3-2.9-2.9-2.9H20.3c-1.6,0-2.9,1.3-2.9,2.9S18.7,76.3,20.3,76.3z"></path></g></g></g></svg>