<svg xmlns="http://www.w3.org/2000/svg" viewBox="0 0 40 40">
  <path d="M20 0C9 0 0 9 0 20s9 20 20 20 20-9 20-20S31 0 20 0zm10 13.9c-.5.7-1 1.3-1.7 1.9-.2.1-.3.4-.3.6v.1c0 1.4-.3 2.8-.8 4.2-.5 1.4-1.3 2.7-2.3 3.8-1.3 1.5-3 2.6-4.9 3.3-1.2.4-2.6.6-3.9.6-2.1 0-4.1-.6-5.9-1.6-.1-.1-.2-.2-.2-.4 0-.1.2-.3.3-.3h.5c1.6 0 3.1-.5 4.5-1.4-1.6-.3-2.9-1.4-3.4-2.9 0-.1 0-.3.1-.3h.1c.2 0 .5.1.7.1h.1c-1.6-.7-2.5-2.3-2.5-4 0-.1.1-.2.2-.2h.1c.3.2.6.3 1 .4-1.4-1.4-1.7-3.5-.7-5.2.1-.1.2-.1.3-.1l.1.1c1.9 2.4 4.7 3.9 7.8 4.1.1 0 .2-.1.2-.2-.1-.5 0-1.1.1-1.6.3-1.4 1.4-2.6 2.8-3 .4-.1.9-.2 1.4-.2 1 0 2.1.4 2.9 1.1.1.1.2.1.4.1h.1c.7-.2 1.4-.5 2.1-.9.1-.1.2 0 .3.1v.2c-.2.7-.6 1.3-1.1 1.8.5-.1.9-.3 1.4-.5.1 0 .2 0 .3.1-.1.1-.1.2-.1.2z" />
</svg>
