<svg xmlns="http://www.w3.org/2000/svg" xml:space="preserve" viewBox="0 0 150 66.7">
  <path fill="#EE3435" d="M71.9 40v14.9l3.3-4.1zm-2.5 1.6-5 9.2 2.7-1.2zm0-2.3-7.5 8.9 3-1.1zm1.6 1-3.2 12 3.2-2.2zm1.9-.3 4.6 13.2 2-2.4-2-5.9zm.2-7.7 5.6-10.8 4.1-12.8-2.9-1.8zm-1.2 1 3.2-14.1V3.9L71.9 2zm10.4-11.2 6.3-9.7-2.8-1.6-11 20.7zm8.5-8.1L71.3 37l11.1 12.1 2.6-.5-9.7-10.7L94 15.8zM71 34.6v-8.3l-5.1-14.6-3.2-.9zM68.7 31l-9.3-9.9-4.4-1.2 15.6 16.4z"/>
  <path fill="#302945" d="M0 26.3h8.9c1.5 0 2.7.2 3.7.5 1 .4 1.8.9 2.4 1.5 1.1 1.1 1.7 2.5 1.7 4.4v.1c0 1.5-.3 2.7-1 3.6-.7 1-1.6 1.7-2.8 2.2l4.5 6.6h-6l-3.8-5.7H5.2v5.7H0V26.3zm8.7 9c.9 0 1.6-.2 2.1-.6.5-.4.7-.9.7-1.6V33c0-.8-.3-1.3-.8-1.7-.5-.4-1.2-.6-2.1-.6H5.2v4.5h3.5zm12-9h15.1v4.4h-10v2.9h9v4.1h-9v3h10.1v4.4H20.7V26.3zm19.3 0h7.3c1.7 0 3.2.2 4.5.7 1.3.5 2.4 1.1 3.3 1.9.9.8 1.6 1.8 2.1 2.9.5 1.1.7 2.4.7 3.8v.1c0 1.4-.2 2.6-.7 3.8-.5 1.2-1.2 2.2-2.1 3-.9.8-2 1.5-3.4 2-1.3.5-2.8.7-4.5.7H40V26.3zm7.3 14.2c1.6 0 2.8-.4 3.8-1.2 1-.8 1.4-2 1.4-3.5v-.1c0-1.5-.5-2.7-1.4-3.5-1-.8-2.2-1.3-3.8-1.3h-2.1v9.6h2.1zm43.9-14.2h15.1v4.6h-9.8V34h8.9v4.4h-8.9v6.7h-5.2V26.3zm24.8-.2h5l8 19h-5.6l-1.4-3.4h-7.3l-1.3 3.4H108l8-19zm4.6 11.6-2.1-5.4-2.1 5.4h4.2zm11.6-11.4h4.9l7.8 10v-10h5.1v18.8h-4.6l-8.1-10.3v10.3h-5.1V26.3z"/>
  <path fill="#898E92" d="M17.8 61.6c0-1.7 1.3-3.1 3.1-3.1 1.1 0 1.8.4 2.3.9l-.8 1c-.5-.4-.9-.7-1.5-.7-1 0-1.7.8-1.7 1.8s.7 1.9 1.7 1.9c.7 0 1.1-.3 1.6-.7l.8.8c-.6.7-1.3 1.1-2.4 1.1-1.8.1-3.1-1.3-3.1-3zm8.2 0c0-1.7 1.3-3.1 3.2-3.1 1.8 0 3.1 1.4 3.1 3 0 1.7-1.3 3.1-3.2 3.1-1.8.1-3.1-1.3-3.1-3zm4.9 0c0-1-.7-1.9-1.8-1.9-1 0-1.8.8-1.8 1.8s.7 1.9 1.8 1.9c1.1.1 1.8-.8 1.8-1.8zm4.6-3h1.4l1.6 2.5 1.6-2.5h1.4v5.9h-1.3v-3.9l-1.7 2.5-1.6-2.5v3.8h-1.3v-5.8zm9.5 0h1.4l1.6 2.5 1.6-2.5H51v5.9h-1.3v-3.9L48 63.2l-1.6-2.5v3.8H45v-5.9zm9.4 3.4v-3.4h1.3V62c0 1 .5 1.5 1.3 1.5s1.3-.5 1.3-1.4v-3.4h1.3V62c0 1.8-1 2.7-2.6 2.7-1.7 0-2.6-.9-2.6-2.7zm8.6-3.4h1.2l2.8 3.6v-3.6h1.3v5.9h-1.1l-2.9-3.8v3.8H63v-5.9zm8.8 0h1.3v5.9h-1.3v-5.9zm4.6 3c0-1.7 1.3-3.1 3.1-3.1 1.1 0 1.8.4 2.3.9l-.8 1c-.5-.4-.9-.7-1.5-.7-1 0-1.7.8-1.7 1.8s.7 1.9 1.7 1.9c.7 0 1.1-.3 1.6-.7l.8.8c-.6.7-1.3 1.1-2.4 1.1-1.8.1-3.1-1.3-3.1-3zm10.7-3h1.2l2.5 6h-1.4l-.5-1.3h-2.5l-.5 1.3h-1.3l2.5-6zm1.4 3.5-.8-1.9-.8 1.9h1.6zm6-2.2h-1.8v-1.2h4.9v1.2h-1.8v4.7h-1.3v-4.7zm6.2-1.3h1.3v5.9h-1.3v-5.9zm4.7 3c0-1.7 1.3-3.1 3.2-3.1 1.8 0 3.1 1.4 3.1 3 0 1.7-1.3 3.1-3.2 3.1-1.8.1-3.1-1.3-3.1-3zm4.9 0c0-1-.7-1.9-1.8-1.9-1 0-1.8.8-1.8 1.8s.7 1.9 1.8 1.9c1.1.1 1.8-.8 1.8-1.8zm4.6-3h1.2l2.8 3.6v-3.6h1.3v5.9h-1.1l-2.9-3.8v3.8h-1.3v-5.9zm8.4 5.1.8-.9c.5.4 1.1.7 1.8.7.5 0 .9-.2.9-.6 0-.3-.2-.5-1.2-.8-1.2-.3-2-.6-2-1.8 0-1.1.9-1.8 2.1-1.8.9 0 1.6.3 2.2.8l-.7 1c-.5-.4-1-.6-1.5-.6s-.8.2-.8.5c0 .4.3.5 1.3.8 1.2.3 1.9.7 1.9 1.8 0 1.2-.9 1.8-2.2 1.8-1 .1-1.9-.3-2.6-.9z"/>
</svg>
